HIERARCHY
ROOT Haolin_28_06:Solving:Hips
{
	OFFSET 0.000000 0.000000 0.000000
	CHANNELS 6 Xposition Yposition Zposition Xrotation Yrotation Zrotation
	JOINT Haolin_28_06:Solving:Spine
	{
		OFFSET 0.000000 -12.181966 2.015561
		CHANNELS 6 Xposition Yposition Zposition Xrotation Yrotation Zrotation
		JOINT Haolin_28_06:Solving:Spine1
		{
			OFFSET 0.000000 -8.890296 1.567602
			CHANNELS 6 Xposition Yposition Zposition Xrotation Yrotation Zrotation
			JOINT Haolin_28_06:Solving:Spine2
			{
				OFFSET 0.000000 -8.993092 0.786796
				CHANNELS 6 Xposition Yposition Zposition Xrotation Yrotation Zrotation
				JOINT Haolin_28_06:Solving:Spine3
				{
					OFFSET 0.000000 -9.027443 0.000000
					CHANNELS 6 Xposition Yposition Zposition Xrotation Yrotation Zrotation
					JOINT Haolin_28_06:Solving:Neck
					{
						OFFSET 0.000000 -11.606712 -1.160669
						CHANNELS 6 Xposition Yposition Zposition Xrotation Yrotation Zrotation
						JOINT Haolin_28_06:Solving:Neck1
						{
							OFFSET 0.000000 -7.471592 -0.653680
							CHANNELS 6 Xposition Yposition Zposition Xrotation Yrotation Zrotation
							JOINT Haolin_28_06:Solving:Head
							{
								OFFSET 0.000000 -7.386181 -1.302382
								CHANNELS 6 Xposition Yposition Zposition Xrotation Yrotation Zrotation
								JOINT Haolin_28_06:Solving:HeadEnd
								{
									OFFSET 0.000000 -9.728081 0.000002
									CHANNELS 6 Xposition Yposition Zposition Xrotation Yrotation Zrotation
									End Site
									{
										OFFSET 0.000000 -9.728081 0.000002
									}
								}
							}
						}
					}
					JOINT Haolin_28_06:Solving:RightShoulder
					{
						OFFSET 0.000000 -8.290508 -5.270916
						CHANNELS 6 Xposition Yposition Zposition Xrotation Yrotation Zrotation
						JOINT Haolin_28_06:Solving:RightArm
						{
							OFFSET -19.261074 -0.000008 0.000000
							CHANNELS 6 Xposition Yposition Zposition Xrotation Yrotation Zrotation
							JOINT Haolin_28_06:Solving:RightForeArm
							{
								OFFSET -30.691700 -0.000011 0.000000
								CHANNELS 6 Xposition Yposition Zposition Xrotation Yrotation Zrotation
								JOINT Haolin_28_06:Solving:RightHand
								{
									OFFSET -20.216934 -0.000008 0.000000
									CHANNELS 6 Xposition Yposition Zposition Xrotation Yrotation Zrotation
									JOINT Haolin_28_06:Solving:RightHandThumb1
									{
										OFFSET -4.948814 2.881329 -3.679893
										CHANNELS 6 Xposition Yposition Zposition Xrotation Yrotation Zrotation
										End Site
										{
											OFFSET -7.039886 -0.000004 -7.104978
										}
									}
									JOINT Haolin_28_06:Solving:RightHandMiddle1
									{
										OFFSET -13.196846 -0.000004 0.084595
										CHANNELS 6 Xposition Yposition Zposition Xrotation Yrotation Zrotation
										End Site
										{
											OFFSET -10.002037 -0.000004 0.000000
										}
									}
								}
							}
						}
					}
					JOINT Haolin_28_06:Solving:LeftShoulder
					{
						OFFSET 0.000000 -8.290508 -5.270916
						CHANNELS 6 Xposition Yposition Zposition Xrotation Yrotation Zrotation
						JOINT Haolin_28_06:Solving:LeftArm
						{
							OFFSET 19.261074 -0.000008 0.000000
							CHANNELS 6 Xposition Yposition Zposition Xrotation Yrotation Zrotation
							JOINT Haolin_28_06:Solving:LeftForeArm
							{
								OFFSET 30.691700 -0.000011 0.000000
								CHANNELS 6 Xposition Yposition Zposition Xrotation Yrotation Zrotation
								JOINT Haolin_28_06:Solving:LeftHand
								{
									OFFSET 20.216934 -0.000008 0.000000
									CHANNELS 6 Xposition Yposition Zposition Xrotation Yrotation Zrotation
									JOINT Haolin_28_06:Solving:LeftHandThumb1
									{
										OFFSET 4.948814 2.881329 -3.679893
										CHANNELS 6 Xposition Yposition Zposition Xrotation Yrotation Zrotation
										End Site
										{
											OFFSET 7.039886 -0.000004 -7.104978
										}
									}
									JOINT Haolin_28_06:Solving:LeftHandMiddle1
									{
										OFFSET 13.196846 -0.000004 0.084595
										CHANNELS 6 Xposition Yposition Zposition Xrotation Yrotation Zrotation
										End Site
										{
											OFFSET 10.002037 -0.000004 0.000000
										}
									}
								}
							}
						}
					}
				}
			}
		}
	}
	JOINT Haolin_28_06:Solving:RightUpLeg
	{
		OFFSET -10.083070 0.000000 0.000000
		CHANNELS 6 Xposition Yposition Zposition Xrotation Yrotation Zrotation
		JOINT Haolin_28_06:Solving:RightLeg
		{
			OFFSET 0.000000 47.042522 -0.000008
			CHANNELS 6 Xposition Yposition Zposition Xrotation Yrotation Zrotation
			JOINT Haolin_28_06:Solving:RightFoot
			{
				OFFSET 0.000000 38.766415 -0.000006
				CHANNELS 6 Xposition Yposition Zposition Xrotation Yrotation Zrotation
				JOINT Haolin_28_06:Solving:RightForeFoot
				{
					OFFSET 0.000000 3.531212 -0.000000
					CHANNELS 6 Xposition Yposition Zposition Xrotation Yrotation Zrotation
					JOINT Haolin_28_06:Solving:RightToeBase
					{
						OFFSET 0.000000 0.000000 -13.829352
						CHANNELS 6 Xposition Yposition Zposition Xrotation Yrotation Zrotation
						JOINT Haolin_28_06:Solving:RightToeBaseEnd
						{
							OFFSET 0.000000 0.000000 -4.034167
							CHANNELS 6 Xposition Yposition Zposition Xrotation Yrotation Zrotation
							End Site
							{
								OFFSET 0.000000 -4.034164 0.000004
							}
						}
					}
				}
			}
		}
	}
	JOINT Haolin_28_06:Solving:LeftUpLeg
	{
		OFFSET 10.083070 0.000000 0.000000
		CHANNELS 6 Xposition Yposition Zposition Xrotation Yrotation Zrotation
		JOINT Haolin_28_06:Solving:LeftLeg
		{
			OFFSET 0.000000 47.042522 -0.000008
			CHANNELS 6 Xposition Yposition Zposition Xrotation Yrotation Zrotation
			JOINT Haolin_28_06:Solving:LeftFoot
			{
				OFFSET 0.000000 38.766415 -0.000006
				CHANNELS 6 Xposition Yposition Zposition Xrotation Yrotation Zrotation
				JOINT Haolin_28_06:Solving:LeftForeFoot
				{
					OFFSET 0.000000 3.531212 -0.000000
					CHANNELS 6 Xposition Yposition Zposition Xrotation Yrotation Zrotation
					JOINT Haolin_28_06:Solving:LeftToeBase
					{
						OFFSET 0.000000 0.000000 -13.829352
						CHANNELS 6 Xposition Yposition Zposition Xrotation Yrotation Zrotation
						JOINT Haolin_28_06:Solving:LeftToeBaseEnd
						{
							OFFSET 0.000000 0.000000 -4.855067
							CHANNELS 6 Xposition Yposition Zposition Xrotation Yrotation Zrotation
							End Site
							{
								OFFSET 0.000000 -4.855064 0.000004
							}
						}
					}
				}
			}
		}
	}
}
MOTION
Frames: 5
Frame Time: 0.041667
-57.470497 -167.491165 -78.271393 129.081300 3.913446 -3.673286 0.000013 -12.181982 2.015522 24.848776 -0.043833 -0.820915 -0.000002 -8.890287 1.567612 10.523050 -0.112954 -0.475323 -0.000002 -8.993070 0.786815 12.071103 0.028860 3.200912 0.000008 -9.027416 -0.000008 -2.744889 -0.272140 3.954091 0.000006 -11.606753 -1.160711 -15.307374 1.636110 1.149332 0.000010 -7.471593 -0.653683 -7.191862 1.967638 -0.583580 -0.000008 -7.386169 -1.302374 -3.247582 0.226314 -0.482378 -0.000005 -9.728096 0.000020 0.000003 -0.000000 -0.000000 -0.000004 -8.290508 -5.270937 -0.000008 15.295910 20.883071 -19.261082 0.000002 -0.000008 -84.786867 -42.022770 -96.328945 -30.691700 -0.000031 0.000007 -39.231445 -10.894708 -8.772742 -20.216927 -0.000005 0.000018 5.195294 -20.425799 14.602796 -4.948809 2.881327 -3.679870 0.000005 0.000010 -0.000002 -13.196856 -0.000005 0.084583 0.000004 0.000006 -0.000003 -0.000001 -8.290520 -5.270938 -0.000004 -7.954555 -18.769753 19.261091 -0.000002 -0.000015 -79.624795 49.261787 86.536810 30.691698 -0.000009 -0.000007 -41.407008 8.212475 7.179462 20.216921 -0.000020 -0.000010 1.467372 14.484082 -5.847736 4.948794 2.881353 -3.679883 0.000002 -0.000009 0.000002 13.196841 0.000018 0.084607 0.000003 -0.000006 0.000004 -10.083060 0.000005 -0.000050 -84.249803 12.777107 24.586374 0.000017 47.042549 -0.000019 55.803161 0.000003 0.000001 0.000006 38.766415 -0.000042 -6.849892 3.899641 -5.874238 0.000040 3.531212 -0.000018 -0.000001 0.000006 0.000000 0.000016 0.000014 -13.829373 2.364764 -0.000002 0.000002 0.000019 -0.000016 -4.034209 -0.000001 -0.000002 0.000000 10.083082 0.000005 -0.000015 -84.655803 -15.006511 -13.505406 -0.000002 47.042542 0.000004 64.804589 -0.000003 -0.000004 -0.000001 38.766403 -0.000048 -15.470635 -16.213040 2.769330 -0.000009 3.531219 0.000020 0.000001 -0.000002 0.000000 -0.000004 0.000017 -13.829355 3.016549 -0.000003 0.000000 -0.000015 -0.000008 -4.855053 -0.000001 -0.000002 -0.000000 
-57.653225 -167.482056 -78.281586 129.217029 3.845379 -3.729698 -0.000005 -12.181969 2.015554 24.834389 -0.052033 -0.843312 0.000000 -8.890310 1.567574 10.561206 -0.108612 -0.495615 -0.000007 -8.993095 0.786785 12.118167 0.036680 3.185087 -0.000014 -9.027411 0.000009 -2.772545 -0.272853 3.958714 -0.000011 -11.606744 -1.160669 -15.382225 1.644157 1.167494 0.000003 -7.471587 -0.653711 -7.188295 1.984541 -0.567042 0.000004 -7.386210 -1.302396 -3.231721 0.225997 -0.474114 0.000004 -9.728111 -0.000002 0.000001 0.000000 -0.000000 -0.000003 -8.290524 -5.270925 -0.000006 15.307811 20.907424 -19.261078 0.000019 0.000006 -84.808779 -42.028391 -96.247133 -30.691713 -0.000025 0.000004 -39.014566 -10.966530 -8.762021 -20.216913 -0.000014 -0.000000 5.206711 -20.364025 14.674335 -4.948776 2.881321 -3.679863 0.000002 0.000003 0.000001 -13.196816 -0.000006 0.084600 0.000004 0.000006 -0.000001 -0.000009 -8.290527 -5.270925 -0.000004 -7.928578 -18.762690 19.261066 -0.000025 -0.000012 -79.671138 49.154874 86.534392 30.691683 -0.000003 -0.000006 -41.402739 8.151049 7.125614 20.216930 -0.000017 0.000006 1.467884 14.615481 -5.798675 4.948812 2.881325 -3.679855 -0.000000 0.000002 -0.000002 13.196869 -0.000027 0.084604 0.000003 0.000002 0.000000 -10.083055 0.000000 -0.000022 -84.389917 12.681671 24.507120 0.000037 47.042511 0.000003 55.974087 -0.000004 -0.000003 0.000014 38.766434 -0.000012 -7.004662 4.012191 -5.756961 0.000019 3.531197 -0.000006 -0.000001 -0.000003 -0.000000 0.000027 0.000008 -13.829373 2.313427 -0.000009 0.000000 0.000022 -0.000008 -4.034153 0.000000 0.000005 0.000000 10.083069 -0.000004 0.000012 -84.745429 -14.916855 -13.499668 0.000005 47.042503 0.000001 64.740788 -0.000004 -0.000003 0.000003 38.766434 -0.000017 -15.323466 -16.224498 2.869816 0.000002 3.531212 0.000014 0.000001 -0.000001 0.000000 -0.000006 0.000005 -13.829379 2.964968 -0.000006 0.000000 0.000006 0.000007 -4.855091 -0.000000 0.000001 -0.000001 
-57.828110 -167.470795 -78.276321 129.356092 3.786620 -3.795252 -0.000006 -12.181954 2.015609 24.829981 -0.056245 -0.852118 0.000000 -8.890311 1.567603 10.572540 -0.105131 -0.507537 -0.000005 -8.993090 0.786764 12.152240 0.016630 3.166417 0.000008 -9.027440 -0.000007 -2.782436 -0.286629 3.967003 -0.000005 -11.606757 -1.160692 -15.410858 1.668375 1.166793 0.000005 -7.471611 -0.653677 -7.236322 1.990443 -0.537363 0.000005 -7.386180 -1.302411 -3.259991 0.224121 -0.461140 -0.000002 -9.728065 -0.000013 -0.000001 0.000000 -0.000000 -0.000012 -8.290543 -5.270926 -0.000005 15.308390 20.923981 -19.261082 0.000003 -0.000015 -84.739015 -42.044671 -96.108903 -30.691706 -0.000014 0.000030 -38.980617 -11.059887 -8.824002 -20.216934 -0.000005 0.000008 5.226894 -20.344138 14.742221 -4.948795 2.881329 -3.679882 0.000003 0.000009 0.000006 -13.196846 -0.000020 0.084603 0.000002 0.000003 0.000000 -0.000014 -8.290554 -5.270935 -0.000004 -7.945714 -18.749849 19.261076 0.000015 -0.000013 -79.763236 49.090861 86.581609 30.691687 -0.000004 0.000009 -41.560834 8.159190 7.171974 20.216927 -0.000025 -0.000008 1.466453 14.609628 -5.795293 4.948824 2.881339 -3.679878 0.000002 0.000009 -0.000006 13.196856 0.000004 0.084607 0.000002 -0.000000 0.000002 -10.083073 0.000003 0.000029 -84.546363 12.599776 24.438220 0.000013 47.042542 -0.000008 56.161292 -0.000002 -0.000004 0.000008 38.766415 0.000015 -7.174595 4.130305 -5.750670 0.000049 3.531204 -0.000021 -0.000001 0.000007 -0.000000 -0.000025 0.000010 -13.829380 2.334696 0.000006 0.000000 0.000005 -0.000000 -4.034176 0.000001 -0.000007 0.000001 10.083068 -0.000001 0.000021 -84.836837 -14.838231 -13.504840 0.000012 47.042496 0.000012 64.703987 -0.000001 -0.000005 0.000019 38.766422 0.000002 -15.290584 -16.243694 2.969375 -0.000000 3.531197 0.000024 0.000001 0.000000 0.000000 -0.000019 0.000008 -13.829392 3.039399 0.000004 0.000000 0.000002 0.000007 -4.855035 -0.000001 -0.000003 0.000000 
-58.002769 -167.458115 -78.262711 129.523637 3.737185 -3.828619 -0.000005 -12.181955 2.015587 24.794777 -0.070137 -0.868266 0.000017 -8.890286 1.567598 10.598294 -0.101470 -0.522617 -0.000009 -8.993088 0.786792 12.179307 -0.019226 3.129594 0.000006 -9.027462 -0.000009 -2.800171 -0.302961 3.974835 -0.000007 -11.606698 -1.160674 -15.484170 1.673457 1.182335 -0.000000 -7.471597 -0.653666 -7.244343 2.012077 -0.504351 0.000004 -7.386158 -1.302390 -3.249111 0.223331 -0.447355 0.000011 -9.728088 -0.000008 0.000002 -0.000000 -0.000000 -0.000014 -8.290478 -5.270897 -0.000010 15.297245 20.952024 -19.261087 0.000013 -0.000006 -84.665604 -42.069249 -95.980455 -30.691713 -0.000010 0.000018 -39.273509 -11.124542 -8.965782 -20.216936 -0.000026 -0.000014 5.270769 -20.386026 14.833245 -4.948825 2.881328 -3.679899 -0.000002 -0.000003 0.000005 -13.196859 0.000009 0.084587 -0.000004 -0.000001 0.000002 -0.000014 -8.290489 -5.270897 -0.000007 -7.942601 -18.719552 19.261084 -0.000005 -0.000014 -79.788542 49.061577 86.568850 30.691690 -0.000005 0.000000 -41.781326 8.187961 7.252212 20.216915 -0.000035 -0.000012 1.461194 14.605548 -5.776228 4.948813 2.881348 -3.679874 -0.000007 -0.000005 -0.000002 13.196839 0.000016 0.084595 -0.000010 0.000003 0.000001 -10.083077 0.000009 0.000014 -84.741959 12.549054 24.353123 -0.000001 47.042515 0.000027 56.367557 -0.000006 -0.000002 -0.000016 38.766441 -0.000018 -7.328638 4.239080 -5.683264 0.000023 3.531212 -0.000017 -0.000001 -0.000000 -0.000000 -0.000009 0.000001 -13.829387 2.327569 -0.000003 0.000000 0.000021 0.000000 -4.034185 0.000001 -0.000003 0.000000 10.083070 0.000005 0.000033 -84.996547 -14.756926 -13.556361 0.000001 47.042526 0.000019 64.688892 0.000000 -0.000004 0.000002 38.766418 -0.000006 -15.218546 -16.234140 2.994817 -0.000013 3.531212 0.000008 0.000001 0.000001 0.000000 -0.000015 0.000011 -13.829366 2.975154 -0.000001 -0.000000 0.000020 -0.000008 -4.855029 0.000000 0.000001 -0.000000 
-58.174526 -167.438721 -78.245895 129.657331 3.669295 -3.874862 -0.000009 -12.181945 2.015541 24.808113 -0.078514 -0.884552 0.000008 -8.890306 1.567574 10.605540 -0.099100 -0.540691 -0.000007 -8.993117 0.786802 12.186328 -0.031363 3.103426 0.000009 -9.027427 0.000006 -2.818571 -0.309689 3.978789 0.000010 -11.606709 -1.160672 -15.521113 1.677367 1.203333 -0.000002 -7.471615 -0.653675 -7.270397 2.027283 -0.488234 -0.000012 -7.386194 -1.302403 -3.258301 0.223328 -0.441596 0.000002 -9.728088 -0.000019 -0.000000 0.000000 -0.000000 0.000016 -8.290485 -5.270921 -0.000007 15.305460 20.970615 -19.261057 0.000004 -0.000006 -84.604740 -42.046375 -95.884996 -30.691711 -0.000003 -0.000002 -39.375183 -11.197760 -9.055262 -20.216934 -0.000008 -0.000010 5.282867 -20.372614 14.874931 -4.948766 2.881334 -3.679888 0.000001 0.000002 0.000003 -13.196807 0.000011 0.084580 -0.000001 -0.000000 0.000002 0.000012 -8.290508 -5.270922 -0.000004 -7.921232 -18.714513 19.261065 -0.000014 0.000001 -79.791192 48.985205 86.565100 30.691715 -0.000023 -0.000003 -41.867403 8.170161 7.258397 20.216932 -0.000041 0.000010 1.461194 14.730852 -5.728460 4.948820 2.881331 -3.679864 -0.000007 0.000010 -0.000012 13.196864 0.000007 0.084607 -0.000001 0.000005 -0.000006 -10.083073 -0.000009 -0.000026 -84.939618 12.513161 24.326392 0.000003 47.042534 -0.000007 56.610326 0.000003 -0.000001 0.000023 38.766418 -0.000004 -7.529742 4.310326 -5.611944 -0.000003 3.531219 -0.000042 -0.000001 0.000003 0.000000 0.000013 0.000010 -13.829364 2.281612 -0.000002 0.000001 -0.000017 0.000008 -4.034155 -0.000000 -0.000001 0.000000 10.083063 0.000020 -0.000023 -85.118384 -14.710991 -13.591487 -0.000007 47.042522 0.000019 64.678340 -0.000002 -0.000002 0.000004 38.766434 -0.000041 -15.173634 -16.197684 3.099422 0.000008 3.531212 -0.000005 0.000000 0.000005 0.000000 0.000008 -0.000004 -13.829347 3.026147 0.000006 -0.000001 0.000010 0.000000 -4.855034 0.000000 0.000003 -0.000000 
